<?xml version="1.0"?>

<!DOCTYPE svg PUBLIC '-//W3C//DTD SVG 1.0//EN' 'http://www.w3.org/TR/2001/REC-SVG-20010904/DTD/svg10.dtd'>
<svg fill-opacity="1" xmlns:xlink="http://www.w3.org/1999/xlink" color-rendering="auto" color-interpolation="auto" text-rendering="auto" stroke="black" stroke-linecap="square" stroke-miterlimit="10" shape-rendering="auto" stroke-opacity="1" fill="black" stroke-dasharray="none" font-weight="normal" stroke-width="1" xmlns="http://www.w3.org/2000/svg" font-family="&apos;Dialog&apos;" font-style="normal" stroke-linejoin="miter" font-size="12" stroke-dashoffset="0" image-rendering="auto">
  <!--Unicode Character 'BALLOT X' (U+2717)-->
  <defs id="genericDefs" />
  <g>
    <g>
      <path d="M62.4375 297.4219 L47.8125 238.5 Q42.6094 217.6875 42.6094 216.2812 Q42.6094 210.2344 45.8438 206.1562 Q49.0781 202.0781 52.4531 202.0781 Q59.3438 202.0781 69.4688 213.8906 Q79.5938 225.7031 93.6562 260.0156 Q99.2812 255.6562 104.7656 249.8906 L120.375 233.8594 Q136.6875 216.2812 140.5547 212.4844 Q144.4219 208.6875 149.4844 208.6875 Q155.1094 208.6875 159.1875 214.3828 Q163.2656 220.0781 163.2656 224.2969 L163.2656 225.4219 Q161.5781 225.9844 160.1719 225.9844 Q153.9844 226.8281 152.5781 232.3125 Q151.7344 234.7031 150.6094 235.8281 Q146.8125 238.7812 141.0469 247.7812 L129.0938 266.625 Q120.0938 281.5312 114.6094 289.125 Q110.3906 294.75 108.4922 298.4062 Q106.5938 302.0625 106.5938 306.7031 Q106.5938 317.1094 112.6406 333.7031 Q118.6875 350.2969 128.1094 364.5 Q134.1562 373.2188 134.1562 374.3438 L133.3125 376.0312 Q132.1875 378 132.1875 379.5469 Q132.1875 379.9688 132.75 382.0781 Q124.875 386.4375 124.2422 387 Q123.6094 387.5625 123.6094 390.5156 L123.8906 391.9219 Q123.8906 393.0469 122.625 393.0469 Q122.0625 393.0469 118.8984 391.5 Q115.7344 389.9531 111.7969 385.3125 Q108.1406 380.3906 104.4844 379.8281 Q102.375 378.7031 101.9531 378.1406 Q97.3125 372.5156 93.375 370.9688 Q91.4062 369.9844 90.1406 367.4531 L74.8125 341.2969 Q62.1562 352.125 44.8594 371.25 Q26.8594 391.6406 14.9062 402.6094 L14.9062 398.5312 Q13.7812 396.2812 11.8125 393.3281 Q10.6875 391.7812 10.125 389.6719 Q9.4219 387 7.1719 386.4375 Q6.1875 386.4375 5.2031 384.4688 Q4.3594 381.7969 2.5312 380.9531 Q0.2812 380.1094 0.2812 378.9844 Q0.2812 378.7031 0.8438 376.3125 Q0 374.625 0 373.7812 Q0 370.125 36 329.4844 Q51.75 311.3438 62.4375 297.4219 Z" stroke="none" />
    </g>
  </g>
</svg>
