<?xml version="1.0"?>

<!DOCTYPE svg PUBLIC '-//W3C//DTD SVG 1.0//EN' 'http://www.w3.org/TR/2001/REC-SVG-20010904/DTD/svg10.dtd'>
<svg fill-opacity="1" xmlns:xlink="http://www.w3.org/1999/xlink" color-rendering="auto" color-interpolation="auto" text-rendering="auto" stroke="black" stroke-linecap="square" stroke-miterlimit="10" shape-rendering="auto" stroke-opacity="1" fill="black" stroke-dasharray="none" font-weight="normal" stroke-width="1" xmlns="http://www.w3.org/2000/svg" font-family="&apos;Dialog&apos;" font-style="normal" stroke-linejoin="miter" font-size="12" stroke-dashoffset="0" image-rendering="auto">
  <!--Unicode Character 'STOPWATCH' (U+23F1)-->
  <defs id="genericDefs" />
  <g>
    <g>
      <path d="M255.9375 189.7031 L239.0625 206.4375 Q230.9062 196.3125 220.7812 188.1562 L237.5156 171.2812 Q247.5 179.7188 255.9375 189.7031 ZM165.0938 166.9219 Q154.9688 165.0938 144 165.0938 Q133.0312 165.0938 122.9062 166.9219 L122.9062 144.1406 Q133.1719 142.5938 144 142.5938 Q154.8281 142.5938 165.0938 144.1406 L165.0938 166.9219 ZM256.5 283.2188 Q256.5 329.625 223.4531 362.6719 Q190.4062 395.7188 144 395.7188 Q97.5938 395.7188 64.5469 362.6719 Q31.5 329.625 31.5 283.2188 Q31.5 236.8125 64.5469 203.7656 Q97.5938 170.7188 144 170.7188 Q190.4062 170.7188 223.4531 203.7656 Q256.5 236.8125 256.5 283.2188 ZM240.75 283.2188 Q240.75 243.2812 212.3438 214.875 Q183.9375 186.4688 144 186.4688 Q104.0625 186.4688 75.6562 214.875 Q47.25 243.2812 47.25 283.2188 Q47.25 323.1562 75.6562 351.5625 Q104.0625 379.9688 144 379.9688 Q183.9375 379.9688 212.3438 351.5625 Q240.75 323.1562 240.75 283.2188 ZM192.9375 209.25 L187.4531 217.5469 Q182.8125 214.4531 179.1562 212.625 L183.5156 203.9062 Q189.1406 206.7188 192.9375 209.25 ZM223.3125 243.7031 L214.5938 248.0625 Q212.7656 244.2656 209.6719 239.7656 L217.9688 234.2812 Q220.5 238.0781 223.3125 243.7031 ZM232.7344 286.0312 Q232.7344 285.4688 232.5938 288.7031 L222.75 288 Q223.0312 283.2188 222.75 278.4375 L232.5938 277.7344 Q232.7344 280.9688 232.7344 280.4062 L232.7344 286.0312 ZM155.9531 217.6875 L149.4844 217.6875 L149.4844 298.8281 L138.5156 298.8281 L138.5156 217.6875 L132.0469 217.6875 L144 193.7812 L155.9531 217.6875 ZM108.8438 212.625 Q105.0469 214.4531 100.5469 217.5469 L95.0625 209.25 Q98.8594 206.7188 104.4844 203.9062 L108.8438 212.625 ZM223.3125 322.7344 Q220.5 328.3594 217.9688 332.1562 L209.6719 326.6719 Q212.7656 322.1719 214.5938 318.375 L223.3125 322.7344 ZM78.3281 239.7656 Q75.2344 244.2656 73.4062 248.0625 L64.6875 243.7031 Q67.5 238.0781 70.0312 234.2812 L78.3281 239.7656 ZM192.9375 357.1875 Q189.1406 359.7188 183.5156 362.5312 L179.1562 353.8125 Q182.9531 351.9844 187.4531 348.8906 L192.9375 357.1875 ZM65.25 288 L55.4062 288.7031 Q55.2656 285.75 55.2656 286.1719 L55.2656 280.4062 Q55.2656 280.9688 55.4062 277.7344 L65.25 278.4375 Q64.9688 283.2188 65.25 288 ZM149.4844 371.8125 Q146.25 371.9531 146.8125 371.9531 L141.1875 371.9531 Q141.75 371.9531 138.5156 371.8125 L139.2188 361.9688 Q144 362.25 148.7812 361.9688 L149.4844 371.8125 ZM78.3281 326.6719 L70.0312 332.1562 Q67.5 328.3594 64.6875 322.7344 L73.4062 318.375 Q75.2344 322.1719 78.3281 326.6719 ZM108.8438 353.8125 L104.4844 362.5312 Q98.8594 359.7188 95.0625 357.1875 L100.5469 348.8906 Q105.0469 351.9844 108.8438 353.8125 Z" stroke="none" />
    </g>
  </g>
</svg>
