<svg xmlns="http://www.w3.org/2000/svg" viewBox="0 0 1143.41 208.48"><defs><style>.cls-1{fill:#1d1d1b;}</style></defs><g id="Ebene_2" data-name="Ebene 2"><path class="cls-1" d="M17.43,73.38V194.27h112V38.87h-112Zm111,119.89h-110V74.38h110Zm-110-153.4h110V73.38h-110Z"/><polygon class="cls-1" points="63.21 132.82 65.51 132.82 65.51 118.35 70.33 118.35 70.33 116.31 58.33 116.31 58.33 118.35 63.21 118.35 63.21 132.82"/><polygon class="cls-1" points="77.89 119.58 77.89 132.82 80.2 132.82 80.2 116.98 78.06 116.98 72.97 120.39 74.01 122.09 77.89 119.58"/><polygon class="cls-1" points="45.74 29.77 46.5 29.77 46.5 23.54 48.61 23.54 48.61 22.85 43.61 22.85 43.61 23.54 45.74 23.54 45.74 29.77"/><polygon class="cls-1" points="53.8 29.09 50.36 29.09 50.36 26.59 53.2 26.59 53.2 25.92 50.36 25.92 50.36 23.53 53.8 23.53 53.8 22.85 49.59 22.85 49.59 29.77 53.8 29.77 53.8 29.09"/><polygon class="cls-1" points="55.89 23.67 56.03 23.67 58.04 29.52 58.9 29.52 60.91 23.67 61.05 23.67 61.05 29.77 61.82 29.77 61.82 22.85 60.43 22.85 58.47 28.71 56.51 22.85 55.12 22.85 55.12 29.77 55.89 29.77 55.89 23.67"/><path class="cls-1" d="M64.29,27.44h1.76c1.47,0,2.21-.79,2.21-2.36a2.33,2.33,0,0,0-.54-1.69,2.28,2.28,0,0,0-1.67-.54H63.52v6.92h.77Zm0-3.91H66a1.41,1.41,0,0,1,1.09.37,1.75,1.75,0,0,1,.34,1.18c0,1.12-.48,1.68-1.43,1.68H64.29Z"/><polygon class="cls-1" points="73.66 29.09 70.22 29.09 70.22 26.59 73.06 26.59 73.06 25.92 70.22 25.92 70.22 23.53 73.66 23.53 73.66 22.85 69.45 22.85 69.45 29.77 73.66 29.77 73.66 29.09"/><path class="cls-1" d="M75.75,27.12h2L79,29.77h.85L78.48,27a1.86,1.86,0,0,0,1.27-2,2.13,2.13,0,0,0-.55-1.59,2.37,2.37,0,0,0-1.66-.51H75v6.92h.77Zm0-3.59h1.79A1.27,1.27,0,0,1,79,25a1.27,1.27,0,0,1-1.41,1.46h-1.8Z"/><path class="cls-1" d="M81.72,28h3l.5,1.78h.76L84,22.85H82.36l-1.9,6.92h.76Zm1.22-4.48h.52l1.05,3.79H81.89Z"/><polygon class="cls-1" points="87.97 29.77 88.73 29.77 88.73 23.54 90.84 23.54 90.84 22.85 85.84 22.85 85.84 23.54 87.97 23.54 87.97 29.77"/><path class="cls-1" d="M94.18,29.87A2.71,2.71,0,0,0,96,29.34a2.08,2.08,0,0,0,.61-1.67V22.85h-.76v4.84a1.42,1.42,0,0,1-.42,1.14,1.92,1.92,0,0,1-1.27.36q-1.62,0-1.62-1.5V22.85h-.77v4.82a2.11,2.11,0,0,0,.59,1.67A2.69,2.69,0,0,0,94.18,29.87Z"/><path class="cls-1" d="M99,27.12h2l1.25,2.65h.85L101.76,27A1.86,1.86,0,0,0,103,25a2.13,2.13,0,0,0-.55-1.59,2.37,2.37,0,0,0-1.66-.51H98.26v6.92H99Zm0-3.59h1.79A1.27,1.27,0,0,1,102.24,25a1.27,1.27,0,0,1-1.41,1.46H99Z"/><polygon class="cls-1" points="108.63 29.09 105.19 29.09 105.19 26.59 108.03 26.59 108.03 25.92 105.19 25.92 105.19 23.53 108.63 23.53 108.63 22.85 104.42 22.85 104.42 29.77 108.63 29.77 108.63 29.09"/><path class="cls-1" d="M164.43,73.38V194.27h112V38.87h-112Zm111,119.89h-110V74.38h110Zm-110-153.4h110V73.38h-110Z"/><polygon class="cls-1" points="210.21 132.82 212.51 132.82 212.51 118.35 217.33 118.35 217.33 116.31 205.33 116.31 205.33 118.35 210.21 118.35 210.21 132.82"/><path class="cls-1" d="M229.45,130.83h-7.53l3.77-3.74a18.52,18.52,0,0,0,2-2.15,6.85,6.85,0,0,0,1-1.83,6.17,6.17,0,0,0,.32-2,4.12,4.12,0,0,0-1.22-3.27,5.52,5.52,0,0,0-3.7-1.07,17.62,17.62,0,0,0-4.78.67l.17,1.87.6-.12a18.87,18.87,0,0,1,3.48-.36,3.79,3.79,0,0,1,2.35.59,2.33,2.33,0,0,1,.75,2,3.7,3.7,0,0,1-.39,1.65,7.17,7.17,0,0,1-1,1.53c-.42.48-1,1.13-1.8,1.93l-4.25,4.44v1.94h10.17Z"/><polygon class="cls-1" points="192.74 29.77 193.5 29.77 193.5 23.54 195.61 23.54 195.61 22.85 190.61 22.85 190.61 23.54 192.74 23.54 192.74 29.77"/><polygon class="cls-1" points="200.8 29.09 197.36 29.09 197.36 26.59 200.2 26.59 200.2 25.92 197.36 25.92 197.36 23.53 200.8 23.53 200.8 22.85 196.59 22.85 196.59 29.77 200.8 29.77 200.8 29.09"/><polygon class="cls-1" points="202.89 23.67 203.03 23.67 205.04 29.52 205.9 29.52 207.91 23.67 208.05 23.67 208.05 29.77 208.82 29.77 208.82 22.85 207.43 22.85 205.47 28.71 203.51 22.85 202.12 22.85 202.12 29.77 202.89 29.77 202.89 23.67"/><path class="cls-1" d="M211.29,27.44h1.76c1.47,0,2.21-.79,2.21-2.36a2.33,2.33,0,0,0-.54-1.69,2.28,2.28,0,0,0-1.67-.54h-2.53v6.92h.77Zm0-3.91H213a1.41,1.41,0,0,1,1.09.37,1.75,1.75,0,0,1,.34,1.18c0,1.12-.48,1.68-1.43,1.68h-1.75Z"/><polygon class="cls-1" points="220.66 29.09 217.22 29.09 217.22 26.59 220.06 26.59 220.06 25.92 217.22 25.92 217.22 23.53 220.66 23.53 220.66 22.85 216.45 22.85 216.45 29.77 220.66 29.77 220.66 29.09"/><path class="cls-1" d="M222.75,27.12h2L226,29.77h.85L225.48,27a1.86,1.86,0,0,0,1.27-2,2.13,2.13,0,0,0-.55-1.59,2.37,2.37,0,0,0-1.66-.51H222v6.92h.77Zm0-3.59h1.79A1.27,1.27,0,0,1,226,25a1.27,1.27,0,0,1-1.41,1.46h-1.8Z"/><path class="cls-1" d="M228.72,28h3l.5,1.78h.76L231,22.85h-1.68l-1.9,6.92h.76Zm1.22-4.48h.52l1,3.79h-2.62Z"/><polygon class="cls-1" points="234.97 29.77 235.73 29.77 235.73 23.54 237.84 23.54 237.84 22.85 232.84 22.85 232.84 23.54 234.97 23.54 234.97 29.77"/><path class="cls-1" d="M241.18,29.87a2.71,2.71,0,0,0,1.82-.53,2.08,2.08,0,0,0,.61-1.67V22.85h-.76v4.84a1.42,1.42,0,0,1-.42,1.14,1.92,1.92,0,0,1-1.27.36q-1.62,0-1.62-1.5V22.85h-.77v4.82a2.11,2.11,0,0,0,.59,1.67A2.69,2.69,0,0,0,241.18,29.87Z"/><path class="cls-1" d="M246,27.12h2l1.25,2.65h.85L248.76,27A1.86,1.86,0,0,0,250,25a2.13,2.13,0,0,0-.55-1.59,2.37,2.37,0,0,0-1.66-.51h-2.56v6.92H246Zm0-3.59h1.79A1.27,1.27,0,0,1,249.24,25a1.27,1.27,0,0,1-1.41,1.46H246Z"/><polygon class="cls-1" points="255.63 29.09 252.19 29.09 252.19 26.59 255.03 26.59 255.03 25.92 252.19 25.92 252.19 23.53 255.63 23.53 255.63 22.85 251.42 22.85 251.42 29.77 255.63 29.77 255.63 29.09"/><path class="cls-1" d="M313.43,73.38V194.27h112V38.87h-112Zm111,119.89h-110V74.38h110Zm-110-153.4h110V73.38h-110Z"/><polygon class="cls-1" points="359.21 132.82 361.51 132.82 361.51 118.35 366.33 118.35 366.33 116.31 354.33 116.31 354.33 118.35 359.21 118.35 359.21 132.82"/><path class="cls-1" d="M373.27,133.09a5.64,5.64,0,0,0,4-1.19,4.8,4.8,0,0,0,1.26-3.66,5.26,5.26,0,0,0-.26-1.81,2.64,2.64,0,0,0-.81-1.12,6.15,6.15,0,0,0-1.47-.82,3.9,3.9,0,0,0,1.62-1.46,4.14,4.14,0,0,0,.56-2.16,3.89,3.89,0,0,0-1.19-3.16,5.9,5.9,0,0,0-3.8-1,15.75,15.75,0,0,0-4.85.72l.19,1.77.63-.12a21.13,21.13,0,0,1,3.62-.36,4,4,0,0,1,2.34.53,2,2,0,0,1,.71,1.71,2.66,2.66,0,0,1-.38,1.39,2.81,2.81,0,0,1-1,1,2.51,2.51,0,0,1-1.24.35H370v1.94h3.19a3.38,3.38,0,0,1,2.22.72,2.51,2.51,0,0,1,.76,2,2.38,2.38,0,0,1-.94,2.13,4.68,4.68,0,0,1-2.64.63,22.19,22.19,0,0,1-4.32-.55l-.16,1.83.76.19A21.41,21.41,0,0,0,373.27,133.09Z"/><polygon class="cls-1" points="341.74 29.77 342.5 29.77 342.5 23.54 344.61 23.54 344.61 22.85 339.61 22.85 339.61 23.54 341.74 23.54 341.74 29.77"/><polygon class="cls-1" points="349.8 29.09 346.36 29.09 346.36 26.59 349.2 26.59 349.2 25.92 346.36 25.92 346.36 23.53 349.8 23.53 349.8 22.85 345.59 22.85 345.59 29.77 349.8 29.77 349.8 29.09"/><polygon class="cls-1" points="351.89 23.67 352.03 23.67 354.04 29.52 354.9 29.52 356.91 23.67 357.05 23.67 357.05 29.77 357.82 29.77 357.82 22.85 356.43 22.85 354.47 28.71 352.51 22.85 351.12 22.85 351.12 29.77 351.89 29.77 351.89 23.67"/><path class="cls-1" d="M360.29,27.44h1.76c1.47,0,2.21-.79,2.21-2.36a2.33,2.33,0,0,0-.54-1.69,2.28,2.28,0,0,0-1.67-.54h-2.53v6.92h.77Zm0-3.91H362a1.41,1.41,0,0,1,1.09.37,1.75,1.75,0,0,1,.34,1.18c0,1.12-.48,1.68-1.43,1.68h-1.75Z"/><polygon class="cls-1" points="369.66 29.09 366.22 29.09 366.22 26.59 369.06 26.59 369.06 25.92 366.22 25.92 366.22 23.53 369.66 23.53 369.66 22.85 365.45 22.85 365.45 29.77 369.66 29.77 369.66 29.09"/><path class="cls-1" d="M371.75,27.12h2L375,29.77h.85L374.48,27a1.86,1.86,0,0,0,1.27-2,2.13,2.13,0,0,0-.55-1.59,2.37,2.37,0,0,0-1.66-.51H371v6.92h.77Zm0-3.59h1.79A1.27,1.27,0,0,1,375,25a1.27,1.27,0,0,1-1.41,1.46h-1.8Z"/><path class="cls-1" d="M377.72,28h3l.5,1.78h.76L380,22.85h-1.68l-1.9,6.92h.76Zm1.22-4.48h.52l1.05,3.79h-2.62Z"/><polygon class="cls-1" points="383.97 29.77 384.73 29.77 384.73 23.54 386.84 23.54 386.84 22.85 381.84 22.85 381.84 23.54 383.97 23.54 383.97 29.77"/><path class="cls-1" d="M390.18,29.87a2.71,2.71,0,0,0,1.82-.53,2.08,2.08,0,0,0,.61-1.67V22.85h-.76v4.84a1.42,1.42,0,0,1-.42,1.14,1.92,1.92,0,0,1-1.27.36q-1.62,0-1.62-1.5V22.85h-.77v4.82a2.11,2.11,0,0,0,.59,1.67A2.69,2.69,0,0,0,390.18,29.87Z"/><path class="cls-1" d="M395,27.12h2l1.25,2.65h.85L397.76,27A1.86,1.86,0,0,0,399,25a2.13,2.13,0,0,0-.55-1.59,2.37,2.37,0,0,0-1.66-.51h-2.56v6.92H395Zm0-3.59h1.79A1.27,1.27,0,0,1,398.24,25a1.27,1.27,0,0,1-1.41,1.46H395Z"/><polygon class="cls-1" points="404.63 29.09 401.19 29.09 401.19 26.59 404.03 26.59 404.03 25.92 401.19 25.92 401.19 23.53 404.63 23.53 404.63 22.85 400.42 22.85 400.42 29.77 404.63 29.77 404.63 29.09"/><path class="cls-1" d="M460.43,73.38V194.27h112V38.87h-112Zm111,119.89h-110V74.38h110Zm-110-153.4h110V73.38h-110Z"/><polygon class="cls-1" points="506.21 132.82 508.51 132.82 508.51 118.35 513.33 118.35 513.33 116.31 501.33 116.31 501.33 118.35 506.21 118.35 506.21 132.82"/><polygon class="cls-1" points="522 132.82 524.3 132.82 524.3 129.87 526.15 129.87 526.15 127.86 524.3 127.86 524.3 123.08 522 123.08 522 127.86 516.98 127.86 521.45 116.98 518.93 116.98 514.61 128.09 514.61 129.87 522 129.87 522 132.82"/><polygon class="cls-1" points="488.74 29.77 489.5 29.77 489.5 23.54 491.61 23.54 491.61 22.85 486.61 22.85 486.61 23.54 488.74 23.54 488.74 29.77"/><polygon class="cls-1" points="496.8 29.09 493.36 29.09 493.36 26.59 496.2 26.59 496.2 25.92 493.36 25.92 493.36 23.53 496.8 23.53 496.8 22.85 492.59 22.85 492.59 29.77 496.8 29.77 496.8 29.09"/><polygon class="cls-1" points="498.89 23.67 499.03 23.67 501.04 29.52 501.9 29.52 503.91 23.67 504.05 23.67 504.05 29.77 504.82 29.77 504.82 22.85 503.43 22.85 501.47 28.71 499.51 22.85 498.12 22.85 498.12 29.77 498.89 29.77 498.89 23.67"/><path class="cls-1" d="M507.29,27.44h1.76c1.47,0,2.21-.79,2.21-2.36a2.33,2.33,0,0,0-.54-1.69,2.28,2.28,0,0,0-1.67-.54h-2.53v6.92h.77Zm0-3.91H509a1.41,1.41,0,0,1,1.09.37,1.75,1.75,0,0,1,.34,1.18c0,1.12-.48,1.68-1.43,1.68h-1.75Z"/><polygon class="cls-1" points="516.66 29.09 513.22 29.09 513.22 26.59 516.06 26.59 516.06 25.92 513.22 25.92 513.22 23.53 516.66 23.53 516.66 22.85 512.45 22.85 512.45 29.77 516.66 29.77 516.66 29.09"/><path class="cls-1" d="M518.75,27.12h2L522,29.77h.85L521.48,27a1.86,1.86,0,0,0,1.27-2,2.13,2.13,0,0,0-.55-1.59,2.37,2.37,0,0,0-1.66-.51H518v6.92h.77Zm0-3.59h1.79A1.27,1.27,0,0,1,522,25a1.27,1.27,0,0,1-1.41,1.46h-1.8Z"/><path class="cls-1" d="M524.72,28h3l.5,1.78h.76L527,22.85h-1.68l-1.9,6.92h.76Zm1.22-4.48h.52l1,3.79h-2.62Z"/><polygon class="cls-1" points="530.97 29.77 531.73 29.77 531.73 23.54 533.84 23.54 533.84 22.85 528.84 22.85 528.84 23.54 530.97 23.54 530.97 29.77"/><path class="cls-1" d="M537.18,29.87a2.71,2.71,0,0,0,1.82-.53,2.08,2.08,0,0,0,.61-1.67V22.85h-.76v4.84a1.42,1.42,0,0,1-.42,1.14,1.92,1.92,0,0,1-1.27.36q-1.62,0-1.62-1.5V22.85h-.77v4.82a2.11,2.11,0,0,0,.59,1.67A2.69,2.69,0,0,0,537.18,29.87Z"/><path class="cls-1" d="M542,27.12h2l1.25,2.65h.85L544.76,27A1.86,1.86,0,0,0,546,25a2.13,2.13,0,0,0-.55-1.59,2.37,2.37,0,0,0-1.66-.51h-2.56v6.92H542Zm0-3.59h1.79A1.27,1.27,0,0,1,545.24,25a1.27,1.27,0,0,1-1.41,1.46H542Z"/><polygon class="cls-1" points="551.63 29.09 548.19 29.09 548.19 26.59 551.03 26.59 551.03 25.92 548.19 25.92 548.19 23.53 551.63 23.53 551.63 22.85 547.42 22.85 547.42 29.77 551.63 29.77 551.63 29.09"/><path class="cls-1" d="M606.43,73.38V194.27h42.12v1.36a2,2,0,0,0,4,0v-1.36h39v1.36a2,2,0,0,0,4,0v-1.36h39v1.36a2,2,0,0,0,4,0v-1.36h39v1.36a2,2,0,0,0,4,0v-1.36h39v1.36a2,2,0,0,0,4,0v-1.36h41.51V38.87H606.43ZM865.06,193.27H824.55V147.2a2,2,0,0,0-1.5-1.93V127.2a.5.5,0,0,0-.5-.5.5.5,0,0,0-.5.5v18.07a2,2,0,0,0-1.5,1.93v46.07h-39V147.2a2,2,0,0,0-1.5-1.93V127.2a.5.5,0,0,0-.5-.5.5.5,0,0,0-.5.5v18.07a2,2,0,0,0-1.5,1.93v46.07h-39V147.2a2,2,0,0,0-1.5-1.93V127.2a.5.5,0,0,0-.5-.5.5.5,0,0,0-.5.5v18.07a2,2,0,0,0-1.5,1.93v46.07h-39V147.2a2,2,0,0,0-1.5-1.93V127.2a.5.5,0,0,0-.5-.5.5.5,0,0,0-.5.5v18.07a2,2,0,0,0-1.5,1.93v46.07h-39V147.2a2,2,0,0,0-1.5-1.93V127.2a.5.5,0,0,0-.5-.5.5.5,0,0,0-.5.5v18.07a2,2,0,0,0-1.5,1.93v46.07H607.43V74.38H865.06ZM607.43,39.87H865.06V73.38H607.43Z"/><polygon class="cls-1" points="710.1 26.91 712.95 26.91 712.95 26.23 710.1 26.23 710.1 23.53 713.47 23.53 713.47 22.85 709.33 22.85 709.33 29.77 710.1 29.77 710.1 26.91"/><polygon class="cls-1" points="718.4 29.08 715.36 29.08 715.36 22.85 714.59 22.85 714.59 29.77 718.4 29.77 718.4 29.08"/><path class="cls-1" d="M720,29.5a3.15,3.15,0,0,0,1.63.37,3.11,3.11,0,0,0,1.62-.36,2,2,0,0,0,.85-1.12,6.59,6.59,0,0,0,.26-2,6.51,6.51,0,0,0-.27-2.06,2.18,2.18,0,0,0-.86-1.17,3.6,3.6,0,0,0-3.22,0,2.13,2.13,0,0,0-.86,1.17,6.49,6.49,0,0,0-.26,2,6.56,6.56,0,0,0,.25,2A2.06,2.06,0,0,0,720,29.5Zm-.15-4.84a1.65,1.65,0,0,1,.6-.93,2.43,2.43,0,0,1,2.34,0,1.65,1.65,0,0,1,.59.94,6.35,6.35,0,0,1,.18,1.69A6.49,6.49,0,0,1,723.4,28a1.53,1.53,0,0,1-.59.89,2,2,0,0,1-1.17.28,2.14,2.14,0,0,1-1.19-.29,1.51,1.51,0,0,1-.59-.9,6.17,6.17,0,0,1-.17-1.66A6.83,6.83,0,0,1,719.86,24.66Z"/><polygon class="cls-1" points="728.02 29.77 729.33 23.86 730.64 29.77 732.05 29.77 733.45 22.85 732.66 22.85 731.48 29.09 731.19 29.09 729.78 22.91 728.88 22.91 727.47 29.09 727.18 29.09 726 22.85 725.2 22.85 726.61 29.77 728.02 29.77"/><polygon class="cls-1" points="735.38 23.67 735.52 23.67 737.53 29.52 738.39 29.52 740.4 23.67 740.54 23.67 740.54 29.77 741.31 29.77 741.31 22.85 739.92 22.85 737.96 28.71 736 22.85 734.61 22.85 734.61 29.77 735.38 29.77 735.38 23.67"/><polygon class="cls-1" points="747.22 29.09 743.78 29.09 743.78 26.59 746.62 26.59 746.62 25.92 743.78 25.92 743.78 23.53 747.22 23.53 747.22 22.85 743.01 22.85 743.01 29.77 747.22 29.77 747.22 29.09"/><polygon class="cls-1" points="749.95 29.77 750.71 29.77 750.71 23.54 752.82 23.54 752.82 22.85 747.82 22.85 747.82 23.54 749.95 23.54 749.95 29.77"/><polygon class="cls-1" points="758.01 29.09 754.57 29.09 754.57 26.59 757.41 26.59 757.41 25.92 754.57 25.92 754.57 23.53 758.01 23.53 758.01 22.85 753.8 22.85 753.8 29.77 758.01 29.77 758.01 29.09"/><path class="cls-1" d="M760.1,27.12h2l1.25,2.65h.85L762.83,27a1.86,1.86,0,0,0,1.27-2,2.13,2.13,0,0,0-.55-1.59,2.37,2.37,0,0,0-1.66-.51h-2.56v6.92h.77Zm0-3.59h1.79A1.27,1.27,0,0,1,763.31,25a1.27,1.27,0,0,1-1.41,1.46h-1.8Z"/><path class="cls-1" d="M900.43,38.87v155.4h40.12v1.36a2,2,0,0,0,4,0v-1.36h39v1.36a2,2,0,0,0,4,0v-1.36h39v1.36a2,2,0,0,0,4,0v-1.36h39v1.36a2,2,0,0,0,4,0v-1.36h37.15V38.87Zm209.27,154.4h-36.15V147.2a2,2,0,0,0-1.5-1.93V104.2a.5.5,0,0,0-.5-.5.5.5,0,0,0-.5.5v41.07a2,2,0,0,0-1.5,1.93v46.07h-39V147.2a2,2,0,0,0-1.5-1.93V127.2a.5.5,0,0,0-.5-.5.5.5,0,0,0-.5.5v18.07a2,2,0,0,0-1.5,1.93v46.07h-39V147.2a2,2,0,0,0-1.5-1.93V104.2a.5.5,0,0,0-.5-.5.5.5,0,0,0-.5.5v41.07a2,2,0,0,0-1.5,1.93v46.07h-39V147.2a2,2,0,0,0-1.5-1.93V127.2a.5.5,0,0,0-.5-.5.5.5,0,0,0-.5.5v18.07a2,2,0,0,0-1.5,1.93v46.07H901.43V74.38H1109.7ZM901.43,73.38V39.87H1109.7V73.38Z"/><path class="cls-1" d="M971.69,29.87a2.71,2.71,0,0,0,1.82-.53,2.08,2.08,0,0,0,.61-1.67V22.85h-.76v4.84a1.42,1.42,0,0,1-.42,1.14,1.92,1.92,0,0,1-1.27.36q-1.62,0-1.62-1.5V22.85h-.77v4.82a2.15,2.15,0,0,0,.59,1.67A2.69,2.69,0,0,0,971.69,29.87Z"/><path class="cls-1" d="M976.27,26.18a6,6,0,0,0,1.28.39,4.94,4.94,0,0,1,.94.26.91.91,0,0,1,.46.36,1.13,1.13,0,0,1,.14.6c0,.93-.5,1.39-1.48,1.39a17.22,17.22,0,0,1-2.07-.18l-.08.64.36.05a13.29,13.29,0,0,0,1.83.17c1.47,0,2.21-.71,2.21-2.13a2,2,0,0,0-.19-.92,1.4,1.4,0,0,0-.6-.55,4.85,4.85,0,0,0-1.14-.38,9.23,9.23,0,0,1-1.11-.31,1.06,1.06,0,0,1-.5-.37,1.26,1.26,0,0,1-.14-.65c0-.75.5-1.13,1.5-1.13a18.37,18.37,0,0,1,2,.17l.07-.65a15.33,15.33,0,0,0-2.09-.2c-1.49,0-2.23.62-2.23,1.86a2,2,0,0,0,.21,1A1.47,1.47,0,0,0,976.27,26.18Z"/><polygon class="cls-1" points="985.4 29.09 981.96 29.09 981.96 26.59 984.8 26.59 984.8 25.92 981.96 25.92 981.96 23.53 985.4 23.53 985.4 22.85 981.19 22.85 981.19 29.77 985.4 29.77 985.4 29.09"/><path class="cls-1" d="M987.49,27.12h2l1.25,2.65h.85L990.22,27a1.86,1.86,0,0,0,1.27-2,2.13,2.13,0,0,0-.55-1.59,2.37,2.37,0,0,0-1.66-.51h-2.56v6.92h.77Zm0-3.59h1.79A1.27,1.27,0,0,1,990.7,25a1.27,1.27,0,0,1-1.41,1.46h-1.8Z"/><rect class="cls-1" x="995.08" y="22.85" width="0.77" height="6.92"/><polygon class="cls-1" points="998.31 23.53 998.5 23.53 1001.19 29.77 1002.6 29.77 1002.6 22.85 1001.84 22.85 1001.84 29.09 1001.64 29.09 998.98 22.85 997.54 22.85 997.54 29.77 998.31 29.77 998.31 23.53"/><polygon class="cls-1" points="1005.71 29.77 1006.47 29.77 1006.47 23.54 1008.58 23.54 1008.58 22.85 1003.58 22.85 1003.58 23.54 1005.71 23.54 1005.71 29.77"/><polygon class="cls-1" points="1013.77 29.09 1010.33 29.09 1010.33 26.59 1013.17 26.59 1013.17 25.92 1010.33 25.92 1010.33 23.53 1013.77 23.53 1013.77 22.85 1009.56 22.85 1009.56 29.77 1013.77 29.77 1013.77 29.09"/><path class="cls-1" d="M1015.86,27.12h2l1.25,2.65h.85L1018.59,27a1.86,1.86,0,0,0,1.27-2,2.13,2.13,0,0,0-.55-1.59,2.37,2.37,0,0,0-1.66-.51h-2.56v6.92h.77Zm0-3.59h1.79a1.27,1.27,0,0,1,1.42,1.45,1.27,1.27,0,0,1-1.41,1.46h-1.8Z"/><polygon class="cls-1" points="1022.02 26.91 1024.87 26.91 1024.87 26.23 1022.02 26.23 1022.02 23.53 1025.39 23.53 1025.39 22.85 1021.25 22.85 1021.25 29.77 1022.02 29.77 1022.02 26.91"/><path class="cls-1" d="M1026.82,28h3l.5,1.78h.76l-1.9-6.92h-1.68l-1.9,6.92h.76Zm1.22-4.48h.52l1,3.79H1027Z"/><path class="cls-1" d="M1032.74,29.47a2.78,2.78,0,0,0,1.63.4,9.32,9.32,0,0,0,1.82-.21l0-.66a9.15,9.15,0,0,1-1.65.18,2.18,2.18,0,0,1-1.27-.3,1.38,1.38,0,0,1-.56-.87,7.31,7.31,0,0,1-.13-1.59,8.24,8.24,0,0,1,.14-1.8,1.44,1.44,0,0,1,.55-.9,2,2,0,0,1,1.18-.28,10.26,10.26,0,0,1,1.74.18l0-.65a9.13,9.13,0,0,0-1.87-.22,2.76,2.76,0,0,0-1.6.39,2,2,0,0,0-.76,1.16,7.83,7.83,0,0,0-.21,2,7.83,7.83,0,0,0,.21,2A2,2,0,0,0,1032.74,29.47Z"/><polygon class="cls-1" points="1041.66 29.09 1038.22 29.09 1038.22 26.59 1041.06 26.59 1041.06 25.92 1038.22 25.92 1038.22 23.53 1041.66 23.53 1041.66 22.85 1037.45 22.85 1037.45 29.77 1041.66 29.77 1041.66 29.09"/><path class="cls-1" d="M640.8,121.15a3.47,3.47,0,0,0,1.9.45,14,14,0,0,0,2.7-.29v-4.08h-2.29v.83h1.38v2.56a9.71,9.71,0,0,1-1.72.17,2.5,2.5,0,0,1-1.42-.35,1.86,1.86,0,0,1-.7-1.09,9.82,9.82,0,0,1,0-4,1.8,1.8,0,0,1,.71-1.08,2.51,2.51,0,0,1,1.42-.34,15.47,15.47,0,0,1,2.58.25l0-.77-.41-.07a12.19,12.19,0,0,0-2.32-.24,3.42,3.42,0,0,0-1.88.45,2.55,2.55,0,0,0-1,1.4,9.64,9.64,0,0,0,0,4.85A2.53,2.53,0,0,0,640.8,121.15Z"/><polygon class="cls-1" points="648.13 113.99 648.36 113.99 651.59 121.48 653.28 121.48 653.28 113.18 652.37 113.18 652.37 120.67 652.13 120.67 648.94 113.18 647.21 113.18 647.21 121.48 648.13 121.48 648.13 113.99"/><path class="cls-1" d="M660.61,120.44a5.72,5.72,0,0,0,.75-3.31,7.91,7.91,0,0,0-.23-2,2.63,2.63,0,0,0-.91-1.4,3,3,0,0,0-1.93-.55h-3v8.3h3A2.66,2.66,0,0,0,660.61,120.44ZM656.25,114h2a1.8,1.8,0,0,1,1.6.77,4.44,4.44,0,0,1,.52,2.45c0,2.3-.71,3.46-2.12,3.46h-2Z"/><path class="cls-1" d="M683.8,121.15a3.47,3.47,0,0,0,1.9.45,14,14,0,0,0,2.7-.29v-4.08h-2.29v.83h1.38v2.56a9.71,9.71,0,0,1-1.72.17,2.5,2.5,0,0,1-1.42-.35,1.86,1.86,0,0,1-.7-1.09,9.82,9.82,0,0,1,0-4,1.8,1.8,0,0,1,.71-1.08,2.51,2.51,0,0,1,1.42-.34,15.47,15.47,0,0,1,2.58.25l0-.77-.41-.07a12.19,12.19,0,0,0-2.32-.24,3.42,3.42,0,0,0-1.88.45,2.55,2.55,0,0,0-1,1.4,9.64,9.64,0,0,0,0,4.85A2.53,2.53,0,0,0,683.8,121.15Z"/><polygon class="cls-1" points="691.13 113.99 691.36 113.99 694.59 121.48 696.28 121.48 696.28 113.18 695.37 113.18 695.37 120.67 695.13 120.67 691.94 113.18 690.21 113.18 690.21 121.48 691.13 121.48 691.13 113.99"/><path class="cls-1" d="M703.61,120.44a5.72,5.72,0,0,0,.75-3.31,7.91,7.91,0,0,0-.23-2,2.63,2.63,0,0,0-.91-1.4,3,3,0,0,0-1.93-.55h-3v8.3h3A2.66,2.66,0,0,0,703.61,120.44ZM699.25,114h2a1.8,1.8,0,0,1,1.6.77,4.44,4.44,0,0,1,.52,2.45c0,2.3-.71,3.46-2.12,3.46h-2Z"/><path class="cls-1" d="M721.54,118.69h2.11c1.77,0,2.65-1,2.65-2.84a2.31,2.31,0,0,0-2.65-2.67h-3v8.3h.92Zm0-4.7h2.1a1.69,1.69,0,0,1,1.31.45,2,2,0,0,1,.41,1.41c0,1.35-.57,2-1.72,2h-2.1Z"/><path class="cls-1" d="M730.48,121.6a3.25,3.25,0,0,0,2.19-.63,2.54,2.54,0,0,0,.73-2v-5.78h-.91V119a1.67,1.67,0,0,1-.51,1.36,2.26,2.26,0,0,1-1.52.44q-2,0-2-1.8v-5.81h-.92V119a2.57,2.57,0,0,0,.71,2A3.22,3.22,0,0,0,730.48,121.6Z"/><polygon class="cls-1" points="739.95 120.65 736.3 120.65 736.3 113.18 735.38 113.18 735.38 121.48 739.95 121.48 739.95 120.65"/><path class="cls-1" d="M741.73,117.17a6.21,6.21,0,0,0,1.53.47,6.14,6.14,0,0,1,1.13.31,1.23,1.23,0,0,1,.56.44,1.42,1.42,0,0,1,.16.72c0,1.11-.59,1.66-1.78,1.66a21.23,21.23,0,0,1-2.48-.21l-.1.77.43.06a16.41,16.41,0,0,0,2.2.2c1.77,0,2.65-.85,2.65-2.56a2.15,2.15,0,0,0-.23-1.09,1.6,1.6,0,0,0-.71-.67,6,6,0,0,0-1.37-.46,9.51,9.51,0,0,1-1.34-.37,1.21,1.21,0,0,1-.59-.44,1.41,1.41,0,0,1-.17-.78c0-.91.6-1.36,1.8-1.36a23.68,23.68,0,0,1,2.36.21l.08-.78a17.63,17.63,0,0,0-2.5-.24c-1.79,0-2.68.74-2.68,2.23a2.42,2.42,0,0,0,.25,1.19A1.79,1.79,0,0,0,741.73,117.17Z"/><polygon class="cls-1" points="752.68 120.67 748.55 120.67 748.55 117.67 751.96 117.67 751.96 116.86 748.55 116.86 748.55 113.99 752.68 113.99 752.68 113.18 747.63 113.18 747.63 121.48 752.68 121.48 752.68 120.67"/><polygon class="cls-1" points="772.14 121.24 772.98 121.24 772.98 118.88 775.27 118.88 775.27 118.06 772.98 118.06 772.98 115.72 772.14 115.72 772.14 118.06 769.87 118.06 769.87 118.88 772.14 118.88 772.14 121.24"/><path class="cls-1" d="M779.31,121.59a2.66,2.66,0,0,0,2-.71,2.84,2.84,0,0,0,.68-2c0-1.56-.84-2.34-2.51-2.34a3.93,3.93,0,0,0-1.87.49l.22-2.58h3.85v-.84H777l-.21,4.12.63.12.26-.12a4.21,4.21,0,0,1,.76-.25,4,4,0,0,1,.87-.11,1.78,1.78,0,0,1,1.25.38,1.54,1.54,0,0,1,.43,1.23,1.84,1.84,0,0,1-.49,1.36,1.91,1.91,0,0,1-1.41.48,12.14,12.14,0,0,1-2.33-.26l-.11.73.4.09A10.77,10.77,0,0,0,779.31,121.59Z"/><polygon class="cls-1" points="787.17 121.48 789.35 113.18 788.38 113.18 786.48 120.67 785.8 120.67 783.9 113.18 782.94 113.18 785.11 121.48 787.17 121.48"/><polygon class="cls-1" points="817.95 120.65 814.3 120.65 814.3 113.18 813.38 113.18 813.38 121.48 817.95 121.48 817.95 120.65"/><polygon class="cls-1" points="824.18 120.67 820.05 120.67 820.05 117.67 823.46 117.67 823.46 116.86 820.05 116.86 820.05 113.99 824.18 113.99 824.18 113.18 819.13 113.18 819.13 121.48 824.18 121.48 824.18 120.67"/><path class="cls-1" d="M831.05,120.44a5.72,5.72,0,0,0,.75-3.31,7.91,7.91,0,0,0-.23-2,2.63,2.63,0,0,0-.91-1.4,3,3,0,0,0-1.93-.55h-3v8.3h3A2.66,2.66,0,0,0,831.05,120.44ZM826.69,114h2a1.8,1.8,0,0,1,1.6.77,4.44,4.44,0,0,1,.52,2.45c0,2.3-.71,3.46-2.12,3.46h-2Z"/><path class="cls-1" d="M927.8,120.94a2.15,2.15,0,0,0,.65-1.73,2.32,2.32,0,0,0-.32-1.29,2,2,0,0,0-1-.72,1.85,1.85,0,0,0,.8-.7,2.25,2.25,0,0,0,.27-1.17,2,2,0,0,0-.61-1.63,2.77,2.77,0,0,0-1.86-.52h-3v8.3h3.17A3,3,0,0,0,927.8,120.94Zm-4.16-7h2.05a1.78,1.78,0,0,1,1.19.33,1.37,1.37,0,0,1,.37,1.08,1.28,1.28,0,0,1-1.48,1.46h-2.13Zm0,6.68v-3h2.15a2.11,2.11,0,0,1,1.26.34,1.37,1.37,0,0,1,.46,1.18,1.39,1.39,0,0,1-.42,1.13,2,2,0,0,1-1.24.35Z"/><path class="cls-1" d="M932.85,121.6A3.25,3.25,0,0,0,935,121a2.54,2.54,0,0,0,.73-2v-5.78h-.91V119a1.67,1.67,0,0,1-.51,1.36,2.26,2.26,0,0,1-1.52.44c-1.29,0-1.94-.6-1.94-1.8v-5.81H930V119a2.54,2.54,0,0,0,.72,2A3.19,3.19,0,0,0,932.85,121.6Z"/><polygon class="cls-1" points="939.44 121.48 940.35 121.48 940.35 114.01 942.89 114.01 942.89 113.18 936.89 113.18 936.89 114.01 939.44 114.01 939.44 121.48"/><polygon class="cls-1" points="945.75 121.48 946.67 121.48 946.67 114.01 949.2 114.01 949.2 113.18 943.2 113.18 943.2 114.01 945.75 114.01 945.75 121.48"/><path class="cls-1" d="M951.13,121.16a4.61,4.61,0,0,0,3.91,0,2.47,2.47,0,0,0,1-1.34,8,8,0,0,0,.3-2.44,7.67,7.67,0,0,0-.32-2.47,2.58,2.58,0,0,0-1-1.4,4.3,4.3,0,0,0-3.87,0,2.58,2.58,0,0,0-1,1.4,7.94,7.94,0,0,0-.31,2.45,8.11,8.11,0,0,0,.3,2.43A2.48,2.48,0,0,0,951.13,121.16Zm-.17-5.81a2,2,0,0,1,.71-1.12,2.38,2.38,0,0,1,1.4-.36,2.41,2.41,0,0,1,1.41.37,2,2,0,0,1,.71,1.12,7.89,7.89,0,0,1,.21,2,8,8,0,0,1-.2,2,1.83,1.83,0,0,1-.7,1.06,2.58,2.58,0,0,1-1.41.34,2.54,2.54,0,0,1-1.43-.35,1.79,1.79,0,0,1-.71-1.08,7.56,7.56,0,0,1-.2-2A7.8,7.8,0,0,1,951,115.35Z"/><polygon class="cls-1" points="958.98 113.99 959.21 113.99 962.43 121.48 964.13 121.48 964.13 113.18 963.22 113.18 963.22 120.67 962.98 120.67 959.78 113.18 958.05 113.18 958.05 121.48 958.98 121.48 958.98 113.99"/><polygon class="cls-1" points="975.78 98.24 976.62 98.24 976.62 95.88 978.91 95.88 978.91 95.06 976.62 95.06 976.62 92.72 975.78 92.72 975.78 95.06 973.51 95.06 973.51 95.88 975.78 95.88 975.78 98.24"/><path class="cls-1" d="M982.92,98.6a2.76,2.76,0,0,0,1.94-.58,2.35,2.35,0,0,0,.62-1.81,2.54,2.54,0,0,0-.15-.94,1.34,1.34,0,0,0-.43-.58,3.31,3.31,0,0,0-.78-.4,1.83,1.83,0,0,0,.86-.72,1.92,1.92,0,0,0,.31-1.08,2,2,0,0,0-.57-1.57,2.86,2.86,0,0,0-1.86-.49,8.2,8.2,0,0,0-2.43.34l.09.73.31-.06a9.92,9.92,0,0,1,1.89-.18,2.13,2.13,0,0,1,1.25.29,1.15,1.15,0,0,1,.37,1,1.37,1.37,0,0,1-.21.75,1.51,1.51,0,0,1-.55.52,1.3,1.3,0,0,1-.68.19h-1.59v.79h1.59c1.09,0,1.64.53,1.64,1.49a1.34,1.34,0,0,1-.53,1.21,2.63,2.63,0,0,1-1.45.35,11.3,11.3,0,0,1-2.16-.29l-.09.76.37.08A11.49,11.49,0,0,0,982.92,98.6Z"/><polygon class="cls-1" points="990.81 98.48 992.98 90.18 992.02 90.18 990.12 97.67 989.44 97.67 987.54 90.18 986.58 90.18 988.75 98.48 990.81 98.48"/><path class="cls-1" d="M996.62,98.6a2.74,2.74,0,0,0,1.94-.58,2.35,2.35,0,0,0,.63-1.81,2.54,2.54,0,0,0-.15-.94,1.36,1.36,0,0,0-.44-.58,3.12,3.12,0,0,0-.78-.4,1.74,1.74,0,0,0,.86-.72,1.93,1.93,0,0,0,.32-1.08,2,2,0,0,0-.58-1.57,2.82,2.82,0,0,0-1.86-.49,8.14,8.14,0,0,0-2.42.34l.08.73.31-.06a10.11,10.11,0,0,1,1.9-.18,2.09,2.09,0,0,1,1.24.29,1.16,1.16,0,0,1,.38,1,1.3,1.3,0,0,1-.22.75,1.42,1.42,0,0,1-.54.52,1.32,1.32,0,0,1-.68.19H995v.79h1.6c1.09,0,1.63.53,1.63,1.49a1.34,1.34,0,0,1-.53,1.21,2.61,2.61,0,0,1-1.45.35,11.3,11.3,0,0,1-2.16-.29l-.08.76.37.08A11.39,11.39,0,0,0,996.62,98.6Z"/><polygon class="cls-1" points="1024.95 120.65 1021.3 120.65 1021.3 113.18 1020.38 113.18 1020.38 121.48 1024.95 121.48 1024.95 120.65"/><polygon class="cls-1" points="1031.18 120.67 1027.05 120.67 1027.05 117.67 1030.46 117.67 1030.46 116.86 1027.05 116.86 1027.05 113.99 1031.18 113.99 1031.18 113.18 1026.13 113.18 1026.13 121.48 1031.18 121.48 1031.18 120.67"/><path class="cls-1" d="M1038.05,120.44a5.72,5.72,0,0,0,.75-3.31,7.91,7.91,0,0,0-.23-2,2.63,2.63,0,0,0-.91-1.4,3,3,0,0,0-1.93-.55h-3v8.3h3A2.66,2.66,0,0,0,1038.05,120.44Zm-4.36-6.45h2a1.8,1.8,0,0,1,1.6.77,4.44,4.44,0,0,1,.52,2.45c0,2.3-.71,3.46-2.12,3.46h-2Z"/><polygon class="cls-1" points="1061.78 98.24 1062.62 98.24 1062.62 95.88 1064.91 95.88 1064.91 95.06 1062.62 95.06 1062.62 92.72 1061.78 92.72 1061.78 95.06 1059.51 95.06 1059.51 95.88 1061.78 95.88 1061.78 98.24"/><path class="cls-1" d="M1068.92,98.6a2.76,2.76,0,0,0,1.94-.58,2.35,2.35,0,0,0,.62-1.81,2.54,2.54,0,0,0-.15-.94,1.34,1.34,0,0,0-.43-.58,3.31,3.31,0,0,0-.78-.4,1.83,1.83,0,0,0,.86-.72,1.92,1.92,0,0,0,.31-1.08,2,2,0,0,0-.57-1.57,2.86,2.86,0,0,0-1.86-.49,8.2,8.2,0,0,0-2.43.34l.09.73.31-.06a9.92,9.92,0,0,1,1.89-.18,2.13,2.13,0,0,1,1.25.29,1.15,1.15,0,0,1,.37,1,1.37,1.37,0,0,1-.21.75,1.51,1.51,0,0,1-.55.52,1.3,1.3,0,0,1-.68.19h-1.59v.79h1.59c1.09,0,1.64.53,1.64,1.49a1.34,1.34,0,0,1-.53,1.21,2.63,2.63,0,0,1-1.45.35,11.3,11.3,0,0,1-2.16-.29l-.09.76.37.08A11.49,11.49,0,0,0,1068.92,98.6Z"/><polygon class="cls-1" points="1076.81 98.48 1078.98 90.18 1078.02 90.18 1076.12 97.67 1075.44 97.67 1073.54 90.18 1072.58 90.18 1074.75 98.48 1076.81 98.48"/><path class="cls-1" d="M1082.62,98.6a2.74,2.74,0,0,0,1.94-.58,2.35,2.35,0,0,0,.63-1.81,2.54,2.54,0,0,0-.15-.94,1.36,1.36,0,0,0-.44-.58,3.12,3.12,0,0,0-.78-.4,1.74,1.74,0,0,0,.86-.72,1.93,1.93,0,0,0,.32-1.08,2,2,0,0,0-.58-1.57,2.82,2.82,0,0,0-1.86-.49,8.14,8.14,0,0,0-2.42.34l.08.73.31-.06a10.11,10.11,0,0,1,1.9-.18,2.09,2.09,0,0,1,1.24.29,1.16,1.16,0,0,1,.38,1,1.3,1.3,0,0,1-.22.75,1.42,1.42,0,0,1-.54.52,1.32,1.32,0,0,1-.68.19H1081v.79h1.6c1.09,0,1.63.53,1.63,1.49a1.34,1.34,0,0,1-.53,1.21,2.61,2.61,0,0,1-1.45.35,11.3,11.3,0,0,1-2.16-.29l-.08.76.37.08A11.39,11.39,0,0,0,1082.62,98.6Z"/></g></svg>