<svg xmlns="http://www.w3.org/2000/svg" viewBox="0 0 345.75 141"><defs><style>.cls-1{fill:#1d1d1b;}</style></defs><g id="Ebene_2" data-name="Ebene 2"><rect class="cls-1" x="27.41" y="2.81" width="0.77" height="6.92"/><polygon class="cls-1" points="30.64 3.49 30.83 3.49 33.52 9.73 34.93 9.73 34.93 2.81 34.17 2.81 34.17 9.05 33.97 9.05 31.31 2.81 29.87 2.81 29.87 9.73 30.64 9.73 30.64 3.49"/><path class="cls-1" d="M37.4,7.4h1.76c1.47,0,2.21-.79,2.21-2.36a2.29,2.29,0,0,0-.54-1.68,2.24,2.24,0,0,0-1.67-.55H36.63V9.73h.77Zm0-3.91h1.75a1.41,1.41,0,0,1,1.09.37A1.75,1.75,0,0,1,40.58,5c0,1.12-.48,1.68-1.43,1.68H37.4Z"/><path class="cls-1" d="M44.85,9.83a2.71,2.71,0,0,0,1.82-.53,2.12,2.12,0,0,0,.61-1.67V2.81h-.76V7.65a1.42,1.42,0,0,1-.42,1.14,1.92,1.92,0,0,1-1.27.36q-1.62,0-1.62-1.5V2.81h-.77V7.63A2.12,2.12,0,0,0,43,9.31,2.69,2.69,0,0,0,44.85,9.83Z"/><polygon class="cls-1" points="50.34 9.73 51.09 9.73 51.09 3.5 53.2 3.5 53.2 2.81 48.2 2.81 48.2 3.5 50.34 3.5 50.34 9.73"/><rect class="cls-1" x="53.46" y="5.37" width="0.82" height="1.14"/><rect class="cls-1" x="53.46" y="8.59" width="0.82" height="1.14"/><polygon class="cls-1" points="60.27 3.99 60.27 9.73 61.05 9.73 61.05 3.13 60.33 3.13 58.23 4.53 58.58 5.11 60.27 3.99"/><path class="cls-1" d="M64.21,9.5a2.91,2.91,0,0,0,2.69,0,2,2,0,0,0,.79-1.08,6,6,0,0,0,.27-2,4.5,4.5,0,0,0-.59-2.62A2.12,2.12,0,0,0,65.56,3a2.41,2.41,0,0,0-1.35.34,2,2,0,0,0-.8,1.08,6,6,0,0,0-.26,2,6,6,0,0,0,.26,2A2,2,0,0,0,64.21,9.5Zm-.09-4.68A1.46,1.46,0,0,1,64.64,4a1.52,1.52,0,0,1,.92-.26,1.54,1.54,0,0,1,.92.26,1.57,1.57,0,0,1,.52.85,6.17,6.17,0,0,1,.17,1.61A6.31,6.31,0,0,1,67,8.05a1.61,1.61,0,0,1-.52.85,1.54,1.54,0,0,1-.92.25,1.52,1.52,0,0,1-.92-.25,1.5,1.5,0,0,1-.52-.85A5.89,5.89,0,0,1,64,6.43,5.77,5.77,0,0,1,64.12,4.82Z"/><path class="cls-1" d="M69.81,9.5a2.49,2.49,0,0,0,1.34.33A2.55,2.55,0,0,0,72.5,9.5a2,2,0,0,0,.79-1.08,6,6,0,0,0,.27-2A4.42,4.42,0,0,0,73,3.81,2.09,2.09,0,0,0,71.15,3a2.4,2.4,0,0,0-1.34.34A2,2,0,0,0,69,4.44a6,6,0,0,0-.26,2,6,6,0,0,0,.26,2A2,2,0,0,0,69.81,9.5Zm-.1-4.68A1.57,1.57,0,0,1,70.23,4a1.78,1.78,0,0,1,1.85,0,1.57,1.57,0,0,1,.52.85,6.17,6.17,0,0,1,.17,1.61,6.31,6.31,0,0,1-.17,1.62,1.61,1.61,0,0,1-.52.85,1.84,1.84,0,0,1-1.85,0,1.61,1.61,0,0,1-.52-.85,6.31,6.31,0,0,1-.17-1.62A6.17,6.17,0,0,1,69.71,4.82Z"/><rect class="cls-1" x="74.54" y="6.63" width="3.03" height="0.7"/><path class="cls-1" d="M83.15,9.06H79.83l1.76-1.79A5.91,5.91,0,0,0,82.67,6,2.28,2.28,0,0,0,83,4.8a1.66,1.66,0,0,0-.51-1.34A2.31,2.31,0,0,0,80.94,3a7,7,0,0,0-2,.27l0,.64.26,0a7.53,7.53,0,0,1,1.45-.17,1.76,1.76,0,0,1,1.1.27,1,1,0,0,1,.35.89,1.66,1.66,0,0,1-.19.74,3.26,3.26,0,0,1-.43.66c-.17.19-.41.45-.72.77l-1.93,2v.65h4.23Z"/><polygon class="cls-1" points="87.44 9.73 88.2 9.73 88.2 8.44 89.05 8.44 89.05 7.76 88.2 7.76 88.2 5.7 87.44 5.7 87.44 7.76 85.05 7.76 86.95 3.13 86.11 3.13 84.23 7.84 84.23 8.44 87.44 8.44 87.44 9.73"/><path class="cls-1" d="M90.89,9.5a2.49,2.49,0,0,0,1.34.33,2.55,2.55,0,0,0,1.35-.33,2,2,0,0,0,.79-1.08,6,6,0,0,0,.27-2A4.42,4.42,0,0,0,94,3.81,2.09,2.09,0,0,0,92.23,3a2.4,2.4,0,0,0-1.34.34,2,2,0,0,0-.8,1.08,6,6,0,0,0-.26,2,6,6,0,0,0,.26,2A2,2,0,0,0,90.89,9.5Zm-.1-4.68A1.57,1.57,0,0,1,91.31,4a1.78,1.78,0,0,1,1.85,0,1.57,1.57,0,0,1,.52.85,6.17,6.17,0,0,1,.17,1.61,6.31,6.31,0,0,1-.17,1.62,1.61,1.61,0,0,1-.52.85,1.84,1.84,0,0,1-1.85,0,1.61,1.61,0,0,1-.52-.85,6.31,6.31,0,0,1-.17-1.62A6.17,6.17,0,0,1,90.79,4.82Z"/><polygon class="cls-1" points="98.81 9.73 100.61 2.81 99.81 2.81 98.22 9.05 97.67 9.05 96.08 2.81 95.28 2.81 97.08 9.73 98.81 9.73"/><path class="cls-1" d="M102.52,6.82a1.92,1.92,0,0,0-1.17.43A1.43,1.43,0,0,0,101,8.32a1.59,1.59,0,0,0,.36,1.12,1.38,1.38,0,0,0,1.06.39,4.27,4.27,0,0,0,1.79-.4,1.62,1.62,0,0,0,1.19.4l0-.59c-.37-.05-.57-.19-.59-.44V6.24A1.64,1.64,0,0,0,104.45,5a1.69,1.69,0,0,0-1.24-.39,9.45,9.45,0,0,0-1.94.22l0,.57a17.58,17.58,0,0,1,2-.13c.54,0,.81.32.81,1v.43Zm1.56,2.07-.23.08a4.14,4.14,0,0,1-1.33.23c-.51,0-.77-.31-.77-.92a.9.9,0,0,1,.21-.64,1,1,0,0,1,.64-.26l1.48-.14Z"/><path class="cls-1" d="M106.92,9.57a2.39,2.39,0,0,0,1.19.26,11.57,11.57,0,0,0,1.44-.14l0-.62-1.18.09a1.85,1.85,0,0,1-.91-.18,1,1,0,0,1-.44-.59,4.21,4.21,0,0,1-.12-1.14A4.37,4.37,0,0,1,107,6.07a.93.93,0,0,1,.43-.59,1.71,1.71,0,0,1,.87-.18,11.42,11.42,0,0,1,1.21.09l0-.61c-.36-.07-.65-.11-.87-.13l-.62,0a1.64,1.64,0,0,0-1.55.71,3.94,3.94,0,0,0-.4,1.9,5.1,5.1,0,0,0,.19,1.51A1.54,1.54,0,0,0,106.92,9.57Z"/><path class="cls-1" d="M201.24,9.46a3.05,3.05,0,0,0,1.63.37,3.14,3.14,0,0,0,1.62-.36,2,2,0,0,0,.85-1.12,6.54,6.54,0,0,0,.26-2,6.4,6.4,0,0,0-.27-2.05,2.11,2.11,0,0,0-.86-1.17,3.52,3.52,0,0,0-3.22,0,2.06,2.06,0,0,0-.86,1.17,6.38,6.38,0,0,0-.26,2,6.63,6.63,0,0,0,.25,2A2,2,0,0,0,201.24,9.46Zm-.15-4.84a1.65,1.65,0,0,1,.6-.93,2,2,0,0,1,1.17-.3A1.91,1.91,0,0,1,204,3.7a1.64,1.64,0,0,1,.59.93,6.35,6.35,0,0,1,.18,1.69A6.63,6.63,0,0,1,204.63,8a1.54,1.54,0,0,1-.59.88,2.07,2.07,0,0,1-1.17.28,2.12,2.12,0,0,1-1.19-.28,1.51,1.51,0,0,1-.59-.9,6.25,6.25,0,0,1-.17-1.67A6.38,6.38,0,0,1,201.09,4.62Z"/><path class="cls-1" d="M209.37,9.83a2.71,2.71,0,0,0,1.82-.53,2.12,2.12,0,0,0,.61-1.67V2.81H211V7.65a1.42,1.42,0,0,1-.42,1.14,1.92,1.92,0,0,1-1.27.36q-1.62,0-1.62-1.5V2.81H207V7.63a2.12,2.12,0,0,0,.59,1.68A2.69,2.69,0,0,0,209.37,9.83Z"/><polygon class="cls-1" points="214.85 9.73 215.62 9.73 215.62 3.5 217.73 3.5 217.73 2.81 212.73 2.81 212.73 3.5 214.85 3.5 214.85 9.73"/><path class="cls-1" d="M219.48,7.4h1.76c1.47,0,2.21-.79,2.21-2.36a2.29,2.29,0,0,0-.54-1.68,2.24,2.24,0,0,0-1.67-.55h-2.53V9.73h.77Zm0-3.91h1.75a1.41,1.41,0,0,1,1.09.37A1.75,1.75,0,0,1,222.66,5c0,1.12-.48,1.68-1.43,1.68h-1.75Z"/><path class="cls-1" d="M226.93,9.83a2.71,2.71,0,0,0,1.82-.53,2.12,2.12,0,0,0,.61-1.67V2.81h-.76V7.65a1.42,1.42,0,0,1-.42,1.14,1.92,1.92,0,0,1-1.27.36q-1.62,0-1.62-1.5V2.81h-.77V7.63a2.12,2.12,0,0,0,.59,1.68A2.69,2.69,0,0,0,226.93,9.83Z"/><polygon class="cls-1" points="232.41 9.73 233.18 9.73 233.18 3.5 235.28 3.5 235.28 2.81 230.28 2.81 230.28 3.5 232.41 3.5 232.41 9.73"/><rect class="cls-1" x="235.54" y="5.37" width="0.82" height="1.14"/><rect class="cls-1" x="235.54" y="8.59" width="0.82" height="1.14"/><polygon class="cls-1" points="242.35 3.99 242.35 9.73 243.13 9.73 243.13 3.13 242.41 3.13 240.31 4.53 240.66 5.11 242.35 3.99"/><path class="cls-1" d="M246.29,9.5a2.49,2.49,0,0,0,1.34.33A2.55,2.55,0,0,0,249,9.5a2,2,0,0,0,.79-1.08,6,6,0,0,0,.27-2,4.42,4.42,0,0,0-.6-2.62A2.09,2.09,0,0,0,247.63,3a2.4,2.4,0,0,0-1.34.34,2,2,0,0,0-.8,1.08,6,6,0,0,0-.26,2,6,6,0,0,0,.26,2A2,2,0,0,0,246.29,9.5Zm-.1-4.68a1.57,1.57,0,0,1,.52-.85,1.78,1.78,0,0,1,1.85,0,1.57,1.57,0,0,1,.52.85,6.17,6.17,0,0,1,.17,1.61,6.31,6.31,0,0,1-.17,1.62,1.61,1.61,0,0,1-.52.85,1.84,1.84,0,0,1-1.85,0,1.61,1.61,0,0,1-.52-.85A6.31,6.31,0,0,1,246,6.43,6.17,6.17,0,0,1,246.19,4.82Z"/><path class="cls-1" d="M251.89,9.5a2.49,2.49,0,0,0,1.34.33,2.55,2.55,0,0,0,1.35-.33,2,2,0,0,0,.79-1.08,6,6,0,0,0,.27-2,4.42,4.42,0,0,0-.6-2.62A2.09,2.09,0,0,0,253.23,3a2.4,2.4,0,0,0-1.34.34,2,2,0,0,0-.8,1.08,6,6,0,0,0-.26,2,6,6,0,0,0,.26,2A2,2,0,0,0,251.89,9.5Zm-.1-4.68a1.57,1.57,0,0,1,.52-.85,1.78,1.78,0,0,1,1.85,0,1.57,1.57,0,0,1,.52.85,6.17,6.17,0,0,1,.17,1.61,6.31,6.31,0,0,1-.17,1.62,1.61,1.61,0,0,1-.52.85,1.84,1.84,0,0,1-1.85,0,1.61,1.61,0,0,1-.52-.85,6.31,6.31,0,0,1-.17-1.62A6.17,6.17,0,0,1,251.79,4.82Z"/><rect class="cls-1" x="256.62" y="6.63" width="3.03" height="0.7"/><path class="cls-1" d="M265.23,9.06h-3.31l1.75-1.79A5.91,5.91,0,0,0,264.75,6a2.28,2.28,0,0,0,.31-1.2,1.66,1.66,0,0,0-.51-1.34A2.31,2.31,0,0,0,263,3a7,7,0,0,0-2,.27l.05.64.27,0a7.35,7.35,0,0,1,1.44-.17,1.76,1.76,0,0,1,1.1.27,1,1,0,0,1,.35.89,1.54,1.54,0,0,1-.19.74,3.26,3.26,0,0,1-.43.66l-.71.77-1.94,2v.65h4.23Z"/><polygon class="cls-1" points="269.51 9.73 270.29 9.73 270.29 8.44 271.13 8.44 271.13 7.76 270.29 7.76 270.29 5.7 269.51 5.7 269.51 7.76 267.13 7.76 269.04 3.13 268.19 3.13 266.31 7.84 266.31 8.44 269.51 8.44 269.51 9.73"/><path class="cls-1" d="M273,9.5a2.55,2.55,0,0,0,1.35.33,2.49,2.49,0,0,0,1.34-.33,2,2,0,0,0,.8-1.08,6,6,0,0,0,.26-2,4.43,4.43,0,0,0-.59-2.62A2.09,2.09,0,0,0,274.31,3a2.46,2.46,0,0,0-1.35.34,2,2,0,0,0-.79,1.08,6,6,0,0,0-.27,2,6,6,0,0,0,.27,2A2,2,0,0,0,273,9.5Zm-.09-4.68a1.57,1.57,0,0,1,.52-.85,1.54,1.54,0,0,1,.92-.26,1.52,1.52,0,0,1,.92.26,1.46,1.46,0,0,1,.52.85,5.77,5.77,0,0,1,.17,1.61,5.89,5.89,0,0,1-.17,1.62,1.5,1.5,0,0,1-.52.85,1.52,1.52,0,0,1-.92.25,1.54,1.54,0,0,1-.92-.25,1.61,1.61,0,0,1-.52-.85,6.31,6.31,0,0,1-.17-1.62A6.17,6.17,0,0,1,272.87,4.82Z"/><polygon class="cls-1" points="280.88 9.73 282.69 2.81 281.89 2.81 280.31 9.05 279.75 9.05 278.15 2.81 277.36 2.81 279.17 9.73 280.88 9.73"/><path class="cls-1" d="M284.6,6.82a1.92,1.92,0,0,0-1.17.43,1.43,1.43,0,0,0-.37,1.07,1.64,1.64,0,0,0,.36,1.12,1.4,1.4,0,0,0,1.06.39,4.27,4.27,0,0,0,1.79-.4,1.62,1.62,0,0,0,1.19.4l0-.59c-.37-.05-.56-.19-.58-.44V6.24A1.64,1.64,0,0,0,286.53,5a1.69,1.69,0,0,0-1.24-.39,9.45,9.45,0,0,0-1.94.22l0,.57a17.28,17.28,0,0,1,2-.13c.54,0,.82.32.82,1v.43Zm1.57,2.07-.23.08a4.24,4.24,0,0,1-1.34.23c-.51,0-.77-.31-.77-.92a.9.9,0,0,1,.21-.64,1,1,0,0,1,.65-.26l1.48-.14Z"/><path class="cls-1" d="M289,9.57a2.39,2.39,0,0,0,1.19.26,11.57,11.57,0,0,0,1.44-.14l0-.62-1.18.09a1.85,1.85,0,0,1-.91-.18,1,1,0,0,1-.44-.59A4.21,4.21,0,0,1,289,7.25a4.37,4.37,0,0,1,.13-1.18.93.93,0,0,1,.43-.59,1.71,1.71,0,0,1,.87-.18,11.24,11.24,0,0,1,1.21.09l0-.61c-.36-.07-.65-.11-.87-.13l-.62,0a1.64,1.64,0,0,0-1.55.71,3.94,3.94,0,0,0-.4,1.9,4.75,4.75,0,0,0,.2,1.51A1.48,1.48,0,0,0,289,9.57Z"/><path class="cls-1" d="M114.49,25.49h50.92V135H128.18V87a2,2,0,0,0-1.5-1.93V67a.5.5,0,0,0-.5-.5.51.51,0,0,0-.5.5V85.11a2,2,0,0,0-1.5,1.93V135h-26V87a2,2,0,0,0-1.5-1.93V67a.5.5,0,0,0-.5-.5.51.51,0,0,0-.5.5V85.11A2,2,0,0,0,94.18,87V135h-29V91.17L72.69,98l2.69-3-9.45-8.6,9-9-2.83-2.83L63,83.75,53.37,75l-2.69,3,9.45,8.6-9,9,2.83,2.83,7.24-7.24V135h-24V87a2,2,0,0,0-1.5-1.93v-20a13.85,13.85,0,1,0-1,0v20A2,2,0,0,0,33.18,87V135H3.83V25.49H15.4v-1H2.83V136H33.26a2,2,0,0,0,3.85,0H61.26a2,2,0,0,0,3.85,0H94.26a2,2,0,0,0,3.85,0h26.15a2,2,0,0,0,3.85,0h38.3V24.49H114.49ZM22.19,51.21a12.94,12.94,0,1,1,13.49,12.9V52a.5.5,0,0,0-.29-.45h12a.5.5,0,0,0,.5-.5.5.5,0,0,0-.5-.5H23.7a.5.5,0,0,0-.5.5.5.5,0,0,0,.5.5H35a.5.5,0,0,0-.29.45V64.12A13,13,0,0,1,22.19,51.21Z"/><path class="cls-1" d="M36.7,18.29h-11l5.5,9.53Zm-1.74,1-3.77,6.53-3.77-6.53Z"/><polygon class="cls-1" points="90.9 59.94 93.2 59.94 93.2 45.45 93.59 45.45 99.3 59.94 103.33 59.94 103.33 43.43 101.03 43.43 101.03 57.93 100.6 57.93 95 43.43 90.9 43.43 90.9 59.94"/><polygon class="cls-1" points="122.9 43.43 122.9 59.94 132.07 59.94 132.07 57.9 125.2 57.9 125.2 43.43 122.9 43.43"/><path class="cls-1" d="M26.56,48.59H44.48a.5.5,0,0,0,.5-.5.51.51,0,0,0-.5-.5H26.56a.5.5,0,0,0-.5.5A.5.5,0,0,0,26.56,48.59Z"/><path class="cls-1" d="M29.55,45.59H41.49a.5.5,0,0,0,.5-.5.5.5,0,0,0-.5-.5H29.55a.5.5,0,0,0-.5.5A.5.5,0,0,0,29.55,45.59Z"/><path class="cls-1" d="M339.41,24.49H287.49v1h50.92V135H301.18V87a2,2,0,0,0-1.5-1.93V67a.5.5,0,0,0-.5-.5.51.51,0,0,0-.5.5V85.11a2,2,0,0,0-1.5,1.93V135h-26V87a2,2,0,0,0-1.5-1.93V67a.5.5,0,0,0-.5-.5.51.51,0,0,0-.5.5V85.11a2,2,0,0,0-1.5,1.93V135h-29V87a2,2,0,0,0-1.5-1.93V67a.5.5,0,0,0-.5-.5.51.51,0,0,0-.5.5V85.11a2,2,0,0,0-1.5,1.93V135h-24V87a2,2,0,0,0-1.5-1.93V67a.5.5,0,0,0-.5-.5.51.51,0,0,0-.5.5V85.11a2,2,0,0,0-1.5,1.93V135H176.83V25.49H188.4v-1H175.83V136h30.43a2,2,0,0,0,3.85,0h24.15a2,2,0,0,0,3.85,0h29.15a2,2,0,0,0,3.85,0h26.15a2,2,0,0,0,3.85,0h38.3Z"/><path class="cls-1" d="M209.7,18.29h-11l5.5,9.53Zm-1.74,1-3.77,6.53-3.77-6.53Z"/><polygon class="cls-1" points="206 43.43 201.9 43.43 201.9 59.94 204.21 59.94 204.21 45.45 204.59 45.45 210.3 59.94 214.33 59.94 214.33 43.43 212.03 43.43 212.03 57.93 211.6 57.93 206 43.43"/><polygon class="cls-1" points="294.9 28.43 294.9 44.94 304.07 44.94 304.07 42.9 297.2 42.9 297.2 28.43 294.9 28.43"/><polygon class="cls-1" points="258.07 42.9 251.21 42.9 251.21 28.43 248.9 28.43 248.9 44.94 258.07 44.94 258.07 42.9"/><path class="cls-1" d="M235.1,56.93a1.79,1.79,0,0,0,.8.7,6.21,6.21,0,0,0,1.53.47,6.14,6.14,0,0,1,1.13.31,1.23,1.23,0,0,1,.56.44,1.42,1.42,0,0,1,.16.72c0,1.11-.59,1.66-1.78,1.66A21.23,21.23,0,0,1,235,61l-.1.77.43.06a16.41,16.41,0,0,0,2.2.2c1.77,0,2.65-.85,2.65-2.56A2.15,2.15,0,0,0,240,58.4a1.65,1.65,0,0,0-.71-.67,6,6,0,0,0-1.37-.46,9.12,9.12,0,0,1-1.34-.37,1.21,1.21,0,0,1-.59-.44,1.41,1.41,0,0,1-.17-.78c0-.91.6-1.36,1.8-1.36a23.68,23.68,0,0,1,2.36.21l.08-.78a17.63,17.63,0,0,0-2.5-.24c-1.79,0-2.68.74-2.68,2.23A2.42,2.42,0,0,0,235.1,56.93Z"/><polygon class="cls-1" points="241.8 61.94 242.72 61.94 242.72 54.62 242.89 54.62 245.3 61.64 246.33 61.64 248.75 54.62 248.91 54.62 248.91 61.94 249.84 61.94 249.84 53.64 248.17 53.64 245.82 60.67 243.47 53.64 241.8 53.64 241.8 61.94"/><path class="cls-1" d="M251.15,61.94h.91l.6-2.13h3.55l.6,2.13h.91l-2.28-8.3h-2Zm3.6-7.51L256,59h-3.15l1.26-4.55Z"/><path class="cls-1" d="M264.75,56.16a2.48,2.48,0,0,0-.66-1.9,2.78,2.78,0,0,0-2-.62H259v8.3H260V58.76h2.36l1.5,3.18h1l-1.6-3.37A2.21,2.21,0,0,0,264.75,56.16ZM262.11,58H260v-3.5h2.15a1.75,1.75,0,0,1,0,3.5Z"/><polygon class="cls-1" points="267.99 61.94 268.9 61.94 268.9 54.47 271.44 54.47 271.44 53.64 265.44 53.64 265.44 54.47 267.99 54.47 267.99 61.94"/><path class="cls-1" d="M292.78,53.64h-3v8.3h3.17a2.92,2.92,0,0,0,1.91-.54,2.12,2.12,0,0,0,.65-1.73,2.24,2.24,0,0,0-.32-1.29,2,2,0,0,0-1-.72,2,2,0,0,0,.8-.7,2.25,2.25,0,0,0,.26-1.17,2,2,0,0,0-.6-1.63A2.82,2.82,0,0,0,292.78,53.64Zm1.79,6a1.36,1.36,0,0,1-.43,1.13,1.93,1.93,0,0,1-1.24.35h-2.21v-3h2.15a2.07,2.07,0,0,1,1.26.34A1.37,1.37,0,0,1,294.57,59.65ZM293.94,57a1.5,1.5,0,0,1-1.11.36h-2.14V54.45h2.06a1.73,1.73,0,0,1,1.18.33,1.37,1.37,0,0,1,.38,1.08A1.48,1.48,0,0,1,293.94,57Z"/><polygon class="cls-1" points="299.54 61.94 299.54 58.45 302.18 53.64 301.13 53.64 299.07 57.53 297 53.64 295.96 53.64 298.61 58.45 298.61 61.94 299.54 61.94"/><path class="cls-1" d="M303.32,61.94h.92V59.15h2.11c1.77,0,2.65-.95,2.65-2.84a2.31,2.31,0,0,0-2.65-2.67h-3Zm.92-7.49h2.1a1.69,1.69,0,0,1,1.31.45,2,2,0,0,1,.41,1.41c0,1.35-.58,2-1.72,2h-2.1Z"/><path class="cls-1" d="M314.39,59.81l.6,2.13h.91l-2.28-8.3h-2l-2.28,8.3h.91l.6-2.13Zm-2.08-5.38h.62L314.19,59H311Z"/><path class="cls-1" d="M319.42,54.32a23.68,23.68,0,0,1,2.36.21l.09-.78a17.75,17.75,0,0,0-2.51-.24c-1.78,0-2.67.74-2.67,2.23a2.42,2.42,0,0,0,.25,1.19,1.71,1.71,0,0,0,.79.7,6.5,6.5,0,0,0,1.53.47,6.28,6.28,0,0,1,1.14.31,1.19,1.19,0,0,1,.55.44,1.33,1.33,0,0,1,.16.72c0,1.11-.59,1.66-1.77,1.66a21.53,21.53,0,0,1-2.49-.21l-.09.77.43.06a16.14,16.14,0,0,0,2.19.2c1.77,0,2.66-.85,2.66-2.56a2.26,2.26,0,0,0-.23-1.09,1.62,1.62,0,0,0-.72-.67,6,6,0,0,0-1.37-.46,8.91,8.91,0,0,1-1.33-.37,1.24,1.24,0,0,1-.6-.44,1.5,1.5,0,0,1-.17-.78C317.62,54.77,318.22,54.32,319.42,54.32Z"/><path class="cls-1" d="M325.92,54.32a23.56,23.56,0,0,1,2.37.21l.08-.78a17.62,17.62,0,0,0-2.51-.24c-1.78,0-2.67.74-2.67,2.23a2.42,2.42,0,0,0,.25,1.19,1.73,1.73,0,0,0,.8.7,6.21,6.21,0,0,0,1.53.47,6.38,6.38,0,0,1,1.13.31,1.14,1.14,0,0,1,.55.44,1.32,1.32,0,0,1,.17.72c0,1.11-.6,1.66-1.78,1.66a21.23,21.23,0,0,1-2.48-.21l-.1.77.43.06a16.41,16.41,0,0,0,2.2.2c1.77,0,2.65-.85,2.65-2.56a2.26,2.26,0,0,0-.23-1.09,1.65,1.65,0,0,0-.71-.67,6.12,6.12,0,0,0-1.38-.46,9.29,9.29,0,0,1-1.33-.37,1.16,1.16,0,0,1-.59-.44,1.41,1.41,0,0,1-.18-.78C324.12,54.77,324.72,54.32,325.92,54.32Z"/></g></svg>